<svg xmlns="http://www.w3.org/2000/svg" viewBox="0 0 1200 630">
  <defs>
    <linearGradient id="bg" x1="0" y1="0" x2="1" y2="1">
      <stop offset="0" stop-color="#FFE9D6"/><stop offset="1" stop-color="#FFF8F1"/>
    </linearGradient>
    <linearGradient id="pw" x1="0" y1="0" x2="1" y2="1">
      <stop offset="0" stop-color="#F2994A"/><stop offset="1" stop-color="#E8743B"/>
    </linearGradient>
  </defs>
  <rect width="1200" height="630" fill="url(#bg)"/>
  <g transform="translate(90,150)">
    <circle cx="90" cy="90" r="90" fill="url(#pw)"/>
    <g fill="#fff">
      <ellipse cx="64" cy="72" rx="15" ry="20"/><ellipse cx="98" cy="62" rx="15" ry="21"/>
      <ellipse cx="128" cy="78" rx="14" ry="19"/>
      <path d="M64 100c13-18 42-18 55 0 11 14 5 33-14 36-9 1.4-19 1.4-28 0-19-3-25-22-13-36z"/>
    </g>
  </g>
  <text x="320" y="250" font-family="Quicksand,Arial,sans-serif" font-size="82" font-weight="700" fill="#2A2320">K9·SANCTUARY</text>
  <text x="322" y="320" font-family="Nunito,Arial,sans-serif" font-size="34" font-weight="700" fill="#E8743B">EVERY DOG DESERVES A HOME</text>
  <text x="322" y="390" font-family="Nunito,Arial,sans-serif" font-size="30" fill="#6E635C">300 rescued dogs · Donate · Sponsor · Adopt</text>
  <text x="90" y="560" font-family="Nunito,Arial,sans-serif" font-size="26" fill="#6E635C">🐾 k9sanctuary.org</text>
</svg>
